<?xml version="1.0" encoding="UTF-8" standalone="no"?>
<svg
   width="64"
   height="64"
   version="1"
   id="svg16"
   xmlns="http://www.w3.org/2000/svg"
   xmlns:svg="http://www.w3.org/2000/svg">
  <defs
     id="defs20" />
  <g
     id="layer4"
     style="display:none">
    <rect
       style="display:inline;opacity:0.2;stroke-width:0.973328"
       width="53.052631"
       height="56"
       x="-58"
       y="-60"
       rx="2.6526315"
       ry="2.8"
       transform="matrix(0,-1,-1,0,0,0)"
       id="rect2" />
  </g>
  <g
     id="layer2">
    <g
       id="g850"
       transform="matrix(1.1276596,0,0,1.1276596,-6.4787238,-5.1489364)">
      <rect
         style="opacity:0.2;stroke-width:0.633481"
         width="25"
         height="46.229507"
         x="15.5"
         y="9.7704916"
         rx="1.5625"
         ry="2.3114755"
         id="rect2-3" />
      <rect
         style="fill:#8e8e8e;stroke-width:0.633481"
         width="25"
         height="46.229507"
         x="15.5"
         y="9"
         rx="1.5625"
         ry="2.3114755"
         id="rect4-6" />
      <rect
         style="opacity:0.6;stroke-width:0.633481"
         width="20.833334"
         height="33.901638"
         x="17.583332"
         y="13.62295"
         rx="1.5625"
         ry="2.3114755"
         id="rect6-7" />
      <path
         style="opacity:0.2;fill:#ffffff;stroke-width:0.633481"
         d="m 17.0625,9.0000001 c -0.865625,0 -1.5625,1.0309179 -1.5625,2.3114759 v 0.770491 c 0,-1.280557 0.696875,-2.3114751 1.5625,-2.3114751 h 21.875 c 0.865625,0 1.5625,1.0309181 1.5625,2.3114751 v -0.770491 c 0,-1.280558 -0.696875,-2.3114759 -1.5625,-2.3114759 z"
         id="path12-3" />
      <circle
         style="opacity:1;fill:#474747;fill-opacity:1;stroke:#ffffff;stroke-width:0"
         id="path979"
         cx="27.8125"
         cy="51.25"
         r="2.75" />
    </g>
  </g>
  <g
     id="g2851"
     style="display:inline">
    <path
       style="opacity:0.2;fill-rule:evenodd;stroke-width:1.14286"
       d="M 62.947429,45.906295 A 16,16.000009 0 0 1 47,60.857159 16,16.000009 0 0 1 31.052571,46.093722 16,16.000009 0 0 0 31,47.142866 16,16.000009 0 0 0 47,63.142875 16,16.000009 0 0 0 63,47.142866 16,16.000009 0 0 0 62.947429,45.906295 Z"
       id="path2845" />
    <ellipse
       style="fill:#fc9300;fill-opacity:1;fill-rule:evenodd;stroke-width:1.14286"
       cx="47"
       cy="46.000008"
       id="ellipse2847"
       rx="16"
       ry="16.000008" />
  </g>
  <g
     id="g7450"
     style="display:none">
    <path
       style="opacity:0.2;fill-rule:evenodd;stroke-width:1.14286"
       d="M 62.947429,45.906295 A 16,16.000009 0 0 1 47,60.857159 16,16.000009 0 0 1 31.052571,46.093722 16,16.000009 0 0 0 31,47.142866 16,16.000009 0 0 0 47,63.142875 16,16.000009 0 0 0 63,47.142866 16,16.000009 0 0 0 62.947429,45.906295 Z"
       id="path7446" />
    <ellipse
       style="fill:#3800fc;fill-opacity:1;fill-rule:evenodd;stroke-width:1.14286"
       cx="47"
       cy="46.000008"
       id="ellipse7448"
       rx="16"
       ry="16.000008" />
  </g>
  <g
     id="layer3"
     style="display:none">
    <path
       style="fill:#ffffff;fill-opacity:1;stroke-width:1.12501"
       d="m 51.402974,33.402211 c -1.114883,0.03937 -2.469392,0.65138 -3.269273,1.474885 -0.718879,0.731255 -1.351134,1.895639 -1.182382,3.015021 1.245383,0.0855 2.521142,-0.556878 3.296272,-1.380385 0.774005,-0.825755 1.298259,-1.967638 1.155383,-3.109521 z m -0.738005,4.511282 c -1.479385,0.118126 -2.830519,1.090132 -3.595524,1.090132 -0.870756,0 -2.21514,-1.056382 -3.642775,-1.028257 -1.876514,0.03037 -3.609025,1.167758 -4.575406,2.971144 -1.948514,3.629275 -0.501754,9.005687 1.398384,11.949832 0.928131,1.441135 2.065514,3.006021 3.493148,3.006021 1.427635,0 1.929389,-0.975383 3.6214,-0.975383 1.692011,0 2.15439,0.975383 3.6484,0.975383 1.49401,0 2.457018,-1.499635 3.379524,-2.944145 1.065381,-1.671761 1.50751,-3.292897 1.533385,-3.376149 -0.03375,-0.01575 -2.937395,-1.206007 -2.966645,-4.794782 -0.02813,-3.00377 2.288265,-4.44603 2.390641,-4.516905 -1.298259,-2.039639 -3.322147,-2.319767 -4.043277,-2.351267 -0.214877,-0.02362 -0.429754,-0.02137 -0.641255,-0.0045 z"
       id="path14" />
  </g>
  <g
     id="layer5"
     style="display:inline">
    <path
       d="m 38.492777,42.815425 c -2.126806,3.321821 3.190209,13.287281 5.317016,13.287281 2.126805,0 2.126805,-1.10727 3.190209,-1.10727 1.063403,0 1.063403,1.10727 3.190208,1.10727 2.126805,0 7.443821,-9.96546 5.317014,-13.287281 -2.126805,-3.321822 -5.317014,-3.321822 -7.443819,-2.214547 v -3.321821 c 5.976325,3.39933 6.208319,-3.463647 6.208319,-3.463647 0,0 -1.710125,-1.862339 -6.208319,3.463647 v -2.214549 l -1.132561,0.372842 -0.994246,5.163528 c -2.126805,-1.107275 -5.317015,-1.107275 -7.443821,2.214547 z"
       id="path2"
       style="display:inline;fill:#ffffff;fill-opacity:1;stroke-width:1.08513"
       clip-path="none" />
  </g>
  <g
     id="g5648"
     style="display:none">
    <path
       d="m 31.876047,39.560756 c -3.780988,5.905459 5.671483,23.621833 9.452473,23.621833 3.780987,0 3.780987,-1.96848 5.671483,-1.96848 1.890494,0 1.890494,1.96848 5.671481,1.96848 3.780987,0 13.23346,-17.716374 9.452469,-23.621833 -3.780986,-5.905462 -9.452469,-5.905462 -13.233456,-3.936973 v -5.905459 c 10.624578,6.043253 11.037012,-6.157595 11.037012,-6.157595 0,0 -3.040222,-3.310825 -11.037012,6.157595 v -3.936977 l -2.013442,0.662831 -1.767548,9.179605 c -3.780987,-1.968489 -9.452471,-1.968489 -13.23346,3.936973 z"
       id="path5646"
       style="display:inline;opacity:0.2;fill:#000000;fill-opacity:0.991253;stroke-width:1.92912"
       clip-path="none" />
    <path
       d="m 31.876047,38.560756 c -3.780988,5.905459 5.671483,23.621833 9.452473,23.621833 3.780987,0 3.780987,-1.96848 5.671483,-1.96848 1.890494,0 1.890494,1.96848 5.671481,1.96848 3.780987,0 13.23346,-17.716374 9.452469,-23.621833 -3.780986,-5.905462 -9.452469,-5.905462 -13.233456,-3.936973 v -5.905459 c 10.624578,6.043253 11.037012,-6.157595 11.037012,-6.157595 0,0 -3.040222,-3.310825 -11.037012,6.157595 v -3.936977 l -2.013442,0.662831 -1.767548,9.179605 c -3.780987,-1.968489 -9.452471,-1.968489 -13.23346,3.936973 z"
       id="path5646-5"
       style="display:inline;fill:#ff4005;fill-opacity:1;stroke-width:1.92912"
       clip-path="none" />
  </g>
</svg>
